<svg xmlns="http://www.w3.org/2000/svg" width="114" height="30" viewBox="0 0 114 30">
    <path fill="#ef394e" fill-rule="evenodd" d="M76.247 19.024h6.662v-8.78h-6.662c-1.15 0-2.221 1.061-2.221 2.195v4.39c0 1.134 1.071 2.195 2.22 2.195zm26.65 0h6.661v-8.78h-6.662c-1.15 0-2.22 1.061-2.22 2.195v4.39c0 1.134 1.07 2.195 2.22 2.195zM87.35 6.951v15.366c0 .484-.62 1.098-1.11 1.098l-2.221.023c-.492 0-1.11-.637-1.11-1.12v-.733L81.9 22.781c-.306.413-1.064.634-1.583.634h-4.071c-3.573 0-6.663-3.063-6.663-6.586v-4.39c0-3.523 3.09-6.585 6.663-6.585h9.993c.491 0 1.11.613 1.11 1.097zm26.649 0v15.366c0 .484-.619 1.098-1.11 1.098l-2.22.023c-.493 0-1.112-.637-1.112-1.12v-.733l-1.007 1.196c-.307.413-1.065.634-1.583.634h-4.072c-3.572 0-6.662-3.063-6.662-6.586v-4.39c0-3.523 3.09-6.585 6.662-6.585h9.994c.49 0 1.11.613 1.11 1.097zm-74.026 3.293h-6.662c-1.15 0-2.221 1.061-2.221 2.195v4.39c0 1.134 1.07 2.195 2.22 2.195h6.663v-8.78zm4.442-3.293V23.78c0 3.523-3.09 6.22-6.663 6.22H34.32c-.51 0-.992-.236-1.3-.638l-1.954-2.55c-.325-.424-.143-1.202.395-1.202h6.292c1.15 0 2.221-.696 2.221-1.83v-.365h-6.662c-3.573 0-6.663-3.063-6.663-6.586v-4.39c0-3.523 3.09-6.585 6.663-6.585h4.071c.51 0 1.065.405 1.425.731l1.166 1.098V6.95c0-.483.62-1.097 1.11-1.097h2.221c.491 0 1.11.613 1.11 1.097zM4.442 16.83c0 1.134 1.07 2.195 2.22 2.195h6.663v-8.78H6.662c-1.15 0-2.22 1.061-2.22 2.195v4.39zM16.656 0c.491 0 1.11.613 1.11 1.098v21.22c0 .483-.619 1.097-1.11 1.097h-2.22c-.492 0-1.111-.613-1.111-1.098v-.732l-1.165 1.232c-.315.346-.923.598-1.426.598H6.662C3.09 23.415 0 20.352 0 16.829v-4.356c0-3.523 3.09-6.62 6.662-6.62h6.663V1.099c0-.485.619-1.098 1.11-1.098h2.22zm45.896 14.634L68.733 6.9c.344-.421.04-1.048-.508-1.048h-3.536c-.267 0-.52.119-.69.323l-6.259 7.727V1.098C57.74.613 57.121 0 56.63 0h-2.22c-.492 0-1.111.613-1.111 1.098v21.22c0 .483.619 1.097 1.11 1.097h2.22c.492 0 1.111-.614 1.111-1.098v-6.951l6.263 7.744c.169.207.424.328.693.328h3.532c.548 0 .853-.627.509-1.048l-6.185-7.756zM47.747 0c-.491 0-1.11.613-1.11 1.098v2.195c0 .484.619 1.097 1.11 1.097h2.22c.492 0 1.11-.613 1.11-1.097V1.098C51.078.613 50.46 0 49.968 0h-2.22zm0 5.854c-.491 0-1.11.613-1.11 1.097v15.366c0 .484.793 1.12 1.284 1.12l2.047-.022c.49 0 1.11-.614 1.11-1.098V6.951c0-.484-.62-1.097-1.11-1.097h-2.221zM21.097 0c-.49 0-1.11.613-1.11 1.098v2.195c0 .484.62 1.097 1.11 1.097h2.221c.491 0 1.11-.613 1.11-1.097V1.098C24.429.613 23.81 0 23.319 0h-2.22zm0 5.854c-.49 0-1.11.613-1.11 1.097v15.366c0 .484.62 1.098 1.11 1.098h2.221c.491 0 1.11-.614 1.11-1.098V6.951c0-.484-.619-1.097-1.11-1.097h-2.22zm72.916-4.756v21.22c0 .483-.619 1.097-1.11 1.097h-2.221c-.492 0-1.11-.614-1.11-1.098V1.097c0-.484.618-1.097 1.11-1.097h2.22c.492 0 1.111.613 1.111 1.098z"/>
</svg>
