<svg width="49" height="48" viewBox="0 0 49 48" fill="none" xmlns="http://www.w3.org/2000/svg">
<path fill-rule="evenodd" clip-rule="evenodd" d="M23.4655 17V20.4096L19.4513 22.6244L9.48245 28.1244L2.09945 32.1978C0.863654 32.8796 0.246054 34.3112 0.598054 35.678C0.950054 37.0448 2.18265 38 3.59385 38H45.3371C46.7485 37.9998 47.9809 37.0448 48.3329 35.678C48.6849 34.3112 48.0673 32.8796 46.8317 32.1978L39.4487 28.1244L29.4799 22.6244L25.4655 20.4096V18.9092C28.0257 18.439 29.9655 16.196 29.9655 13.5C29.9655 10.4642 27.5015 8 24.4655 8C21.4281 8 18.9655 10.4626 18.9655 13.5V14.5H20.9655V13.5C20.9655 11.567 22.5327 10 24.4655 10C26.3969 10 27.9655 11.5686 27.9655 13.5C27.9655 15.433 26.3985 17 24.4655 17H23.4655ZM46.3961 35.1792C46.2717 35.6622 45.8361 36 45.3371 36H3.59385C3.09505 36 2.65925 35.6622 2.53485 35.1792C2.41045 34.696 2.62885 34.19 3.06565 33.949L10.4485 29.8756L20.4173 24.3756L24.4655 22.1422L28.5137 24.3756L38.4825 29.8756L45.8655 33.949C46.3023 34.19 46.5205 34.696 46.3961 35.1792Z" fill="url(#paint0_linear_3911_46319)"/>
<defs>
<linearGradient id="paint0_linear_3911_46319" x1="24.5" y1="-5.40001" x2="24.5" y2="40.2" gradientUnits="userSpaceOnUse">
<stop offset="0.249817" stop-color="#F04D7D"/>
<stop offset="0.598695" stop-color="#F04D7D" stop-opacity="0.7"/>
<stop offset="1" stop-color="#F04D7D" stop-opacity="0"/>
<stop offset="1" stop-color="#F04D7D" stop-opacity="0"/>
</linearGradient>
</defs>
</svg>
